<svg xmlns="http://www.w3.org/2000/svg" width="24" height="24" viewBox="0 0 24 24" fill="currentColor" stroke="none" class="feather feather-rupee-sign"><line x1="12" y1="1" x2="12" y2="23"></line><path d="M15.9,21.9l-4.1-6.2c-0.3-0.5-0.6-0.9-1-1.2c-0.3-0.3-0.7-0.5-1.1-0.6c-0.4-0.1-0.9-0.2-1.5-0.2h-4v-1.8h5.7 c1.1,0,2-0.1,2.7-0.4c0.7-0.3,1.2-0.7,1.6-1.3c0.4-0.6,0.5-1.3,0.5-2.2L15,8.3H4.2V6.6H15L14.6,7c-0.1-1-0.6-1.8-1.4-2.4 c-0.8-0.5-1.8-0.8-3.2-0.8H4.2V2.1h15.6v1.7h-5.5l0.3-0.3c0.7,0.4,1.2,0.8,1.6,1.4c0.4,0.6,0.6,1.3,0.7,2.1l-0.5-0.4h3.4v1.7h-3.3 L17,7.7c0,1.1-0.2,2.1-0.7,3c-0.5,0.8-1.2,1.5-2.1,2c-0.9,0.5-2,0.7-3.3,0.7v-0.1l0.4,0.1c0.4,0,0.8,0.1,1.2,0.3 c0.4,0.2,0.7,0.4,1,0.7s0.7,0.7,1,1.2l4.3,6.4H15.9z"></path></svg>